<svg height="483pt" viewBox="0 -2 483.43969 483" width="483pt" xmlns="http://www.w3.org/2000/svg"><g fill="#bddbff"><path d="m88 312.214844h-80v160h80zm0 0"/><path d="m360 88.214844h56v-40l-144-40-144 40v40zm-88-56c8.835938 0 16 7.164062 16 16 0 8.839844-7.164062 16-16 16s-16-7.160156-16-16c0-8.835938 7.164062-16 16-16zm0 0"/><path d="m152 88.214844h32v128h-32zm0 0"/><path d="m360 88.214844h32v128h-32zm0 0"/><path d="m184 216.214844h-40v32h256v-32zm0 0"/><path d="m128 248.214844v32h288v-32zm0 0"/></g><path d="m479.734375 334.6875c-4.464844-9.617188-12.574219-17.0625-22.542969-20.691406-9.964844-3.625-20.964844-3.132813-30.566406 1.363281l-103.65625 48.265625c6.875-12.390625 6.679688-27.488281-.503906-39.699219-7.1875-12.210937-20.296875-19.707031-34.464844-19.710937h-120c-21.628906-.015625-41.324219 12.449218-50.566406 32h-21.433594v-24c0-4.417969-3.582031-8-8-8h-80c-4.417969 0-8 3.582031-8 8v160c0 4.421875 3.582031 8 8 8h80c4.417969 0 8-3.578125 8-8v-16h208.902344c5.84375-.007813 11.613281-1.285156 16.914062-3.742188l138.625-64.617187c19.929688-9.425781 28.539063-33.152344 19.292969-53.167969zm-399.734375 129.527344h-64v-144h64zm373.65625-90.847656-138.601562 64.601562c-3.179688 1.476562-6.644532 2.242188-10.152344 2.246094h-208.902344v-88h26.800781c3.402344 0 6.433594-2.152344 7.550781-5.367188 5.609376-15.980468 20.714844-26.660156 37.648438-26.632812h120c13.253906 0 24 10.746094 24 24 0 13.257812-10.746094 24-24 24h-72v16h91.800781c5.828125-.007813 11.589844-1.28125 16.878907-3.734375l108.726562-50.625c5.742188-2.691407 12.316406-2.992188 18.28125-.832031 5.960938 2.160156 10.820312 6.601562 13.503906 12.34375 1.476563 3.203124 2.242188 6.683593 2.25 10.210937-.003906 9.3125-5.371094 17.796875-13.785156 21.789063zm0 0" fill="#3d9ae2"/><path d="m272 72.214844c13.253906 0 24-10.742188 24-24 0-13.253906-10.746094-24-24-24s-24 10.746094-24 24c0 13.257812 10.746094 24 24 24zm0-32c4.417969 0 8 3.582031 8 8 0 4.421875-3.582031 8-8 8s-8-3.578125-8-8c0-4.417969 3.582031-8 8-8zm0 0" fill="#3d9ae2"/><path d="m128 288.214844h288c4.417969 0 8-3.578125 8-8v-32c0-4.417969-3.582031-8-8-8h-8v-24c0-4.417969-3.582031-8-8-8v-112h16c4.417969 0 8-3.578125 8-8v-40c0-3.589844-2.394531-6.738282-5.855469-7.703125l-144-40c-1.402343-.390625-2.886719-.390625-4.289062 0l-144 40c-3.460938.964843-5.855469 4.113281-5.855469 7.703125v40c0 4.421875 3.582031 8 8 8h16v112c-4.417969 0-8 3.582031-8 8v24h-8c-4.417969 0-8 3.582031-8 8v32c0 4.421875 3.582031 8 8 8zm256-80h-16v-112h16zm-192 0v-112h160v112zm-56-153.917969 136-37.777344 136 37.777344v25.917969h-272zm24 41.917969h16v112h-16zm-8 128h240v16h-240zm-16 32h272v16h-272zm0 0" fill="#3d9ae2"/><path d="m280 144.214844h-16c-4.417969 0-8-3.578125-8-8 0-4.417969 3.582031-8 8-8h16c4.417969 0 8 3.582031 8 8h16c0-13.253906-10.746094-24-24-24v-8h-16v8c-13.253906 0-24 10.746094-24 24 0 13.257812 10.746094 24 24 24h16c4.417969 0 8 3.582031 8 8 0 4.421875-3.582031 8-8 8h-16c-4.417969 0-8-3.578125-8-8h-16c0 13.257812 10.746094 24 24 24v8h16v-8c13.253906 0 24-10.742188 24-24 0-13.253906-10.746094-24-24-24zm0 0" fill="#3d9ae2"/></svg>