<svg height="481pt" viewBox="-5 0 481 481.27846" width="481pt" xmlns="http://www.w3.org/2000/svg"><path d="m8.175781 367.988281 60.167969-21.902343 38.324219 105.28125-60.171875 21.902343zm0 0" fill="#bddbff"/><path d="m164.019531 421.921875 5.519531 15.039063-60.160156 21.917968-2.722656-7.519531-38.320312-105.28125-2.71875-7.519531 60.082031-21.839844 5.519531 15.042969zm0 0" fill="#bddbff"/><path d="m184.175781 176c0 30.929688-25.070312 56-56 56-30.925781 0-56-25.070312-56-56s25.074219-56 56-56c30.929688 0 56 25.070312 56 56zm0 0" fill="#bddbff"/><path d="m344.175781 240c0 30.929688-25.070312 56-56 56-30.925781 0-56-25.070312-56-56s25.074219-56 56-56c30.929688 0 56 25.070312 56 56zm0 0" fill="#bddbff"/><path d="m464.175781 112c0 30.929688-25.070312 56-56 56-30.925781 0-56-25.070312-56-56s25.074219-56 56-56c30.929688 0 56 25.070312 56 56zm0 0" fill="#bddbff"/><g fill="#3d9ae2"><path d="m398.296875 321.136719c-7.683594-3.621094-16.496094-4.011719-24.472656-1.089844l-49.863281 18.152344c-4.578126-8.898438-13.042969-15.152344-22.894532-16.910157l-108.730468-19.199218c-1.378907-.25-2.800782-.121094-4.117188.367187l-52.25 19.015625-2.734375-7.519531c-1.503906-4.15625-6.09375-6.308594-10.25-4.800781l-60.144531 21.894531c-4.15625 1.503906-6.304688 6.09375-4.796875 10.25l-52.625 19.199219c-4.15625 1.503906-6.304688 6.09375-4.800781 10.246094l38.351562 105.257812c1.503906 4.15625 6.09375 6.304688 10.25 4.800781l52.621094-19.199219c.722656 1.996094 2.210937 3.625 4.132812 4.523438 1.925782.902344 4.128906 1 6.125.273438l60.136719-21.894532c4.15625-1.503906 6.304687-6.09375 4.800781-10.246094l-2.738281-7.515624 4.890625-1.78125 45.863281 15.496093c1.722657.574219 3.59375.550781 5.304688-.066406l22.550781-8.214844 142.824219-52c12.148437-4.433593 20.433593-15.742187 20.996093-28.660156.566407-12.921875-6.699218-24.910156-18.414062-30.386719zm-301.925781 125.4375-45.105469 16.417969-32.832031-90.191407 45.105468-16.425781zm17.773437 2.050781-38.304687-105.25 45.136718-16.421875 38.3125 105.246094zm285.144531-91.738281c-1.796874 3.847656-5.046874 6.824219-9.039062 8.273437l-162.753906 59.199219-45.871094-15.496094c-1.71875-.578125-3.589844-.558593-5.296875.066407l-7.519531 2.734374-27.359375-75.199218 50.234375-18.289063 106.605468 18.863281c5.65625.957032 10.351563 4.890626 12.289063 10.289063.25.644531.4375 1.316406.550781 2 0 .273437.074219.542969.128906.800781.359376 1.78125.378907 3.617188.0625 5.40625-1.554687 8.703125-9.839843 14.515625-18.550781 13.023438l-90.097656-15.855469-2.773437 15.753906 90.070312 15.886719c17.433594 2.996094 34.007812-8.65625 37.089844-26.070312.203125-1.425782.316406-2.859376.335937-4.296876l51.902344-18.898437c6.089844-2.230469 12.921875-.570313 17.304687 4.207031 4.382813 4.78125 5.445313 11.730469 2.695313 17.601563zm0 0"/><path d="m128.175781 240c35.347657 0 64-28.652344 64-64s-28.652343-64-64-64c-35.34375 0-64 28.652344-64 64 .042969 35.328125 28.671875 63.960938 64 64zm0-112c26.511719 0 48 21.492188 48 48s-21.488281 48-48 48c-26.507812 0-48-21.492188-48-48 .027344-26.5 21.503907-47.972656 48-48zm0 0"/><path d="m120.175781 216h16v-8c8.839844 0 16-7.164062 16-16v-8c0-8.835938-7.160156-16-16-16h-16v-8h32v-16h-16v-8h-16v8c-8.835937 0-16 7.164062-16 16v8c0 8.835938 7.164063 16 16 16h16v8h-32v16h16zm0 0"/><path d="m408.175781 48c-35.34375 0-64 28.652344-64 64s28.65625 64 64 64c35.347657 0 64-28.652344 64-64-.039062-35.328125-28.667969-63.960938-64-64zm0 112c-26.507812 0-48-21.492188-48-48s21.492188-48 48-48c26.511719 0 48 21.492188 48 48-.023437 26.5-21.5 47.972656-48 48zm0 0"/><path d="m416.175781 72h-16v8c-8.835937 0-16 7.164062-16 16v8c0 8.835938 7.164063 16 16 16h16v8h-32v16h16v8h16v-8c8.839844 0 16-7.164062 16-16v-8c0-8.835938-7.160156-16-16-16h-16v-8h32v-16h-16zm0 0"/><path d="m224.175781 240c0 35.347656 28.65625 64 64 64 35.347657 0 64-28.652344 64-64s-28.652343-64-64-64c-35.328125.039062-63.957031 28.671875-64 64zm112 0c0 26.507812-21.488281 48-48 48-26.507812 0-48-21.492188-48-48s21.492188-48 48-48c26.5.027344 47.976563 21.5 48 48zm0 0"/><path d="m280.175781 200v8c-8.835937 0-16 7.164062-16 16v8c0 8.835938 7.164063 16 16 16h16v8h-32v16h16v8h16v-8c8.839844 0 16-7.164062 16-16v-8c0-8.835938-7.160156-16-16-16h-16v-8h32v-16h-16v-8zm0 0"/><path d="m128.175781 96c2.125 0 4.15625-.84375 5.65625-2.34375l24-24-11.308593-11.3125-10.347657 10.34375v-36.6875h-16v36.6875l-10.34375-10.34375-11.308593 11.3125 24 24c1.5 1.5 3.53125 2.34375 5.652343 2.34375zm0 0"/><path d="m120.175781 0h16v16h-16zm0 0"/><path d="m232.175781 152c2.125 0 4.15625-.84375 5.65625-2.34375l24-24-11.308593-11.3125-10.347657 10.34375v-36.6875h-16v36.6875l-10.34375-10.34375-11.308593 11.3125 24 24c1.5 1.5 3.53125 2.34375 5.652343 2.34375zm0 0"/><path d="m224.175781 56h16v16h-16zm0 0"/><path d="m304.175781 104c2.125 0 4.15625-.84375 5.65625-2.34375l24-24-11.308593-11.3125-10.347657 10.34375v-36.6875h-16v36.6875l-10.34375-10.34375-11.308593 11.3125 24 24c1.5 1.5 3.53125 2.34375 5.652343 2.34375zm0 0"/><path d="m296.175781 8h16v16h-16zm0 0"/></g></svg>