<?xml version="1.0"?>
<svg xmlns="http://www.w3.org/2000/svg" id="outline" viewBox="0 0 512 512" width="512" height="512"><path d="M184,336h16V319.59692A20.00055,20.00055,0,0,0,196,280h-8a4,4,0,0,1,0-8h28V256H200V240H184v16.40308A20.00055,20.00055,0,0,0,188,296h8a4,4,0,0,1,0,8H168v16h16Z"/><path d="M480,216a8.00008,8.00008,0,0,0-8-8H424a8.00008,8.00008,0,0,0-8,8v32H376a8.00008,8.00008,0,0,0-8,8v24H328a8.00008,8.00008,0,0,0-8,8v75.50342l-32.249-38.69873a89.9425,89.9425,0,0,0-4.408-83.634L314.80615,216H368V200H312a8.00033,8.00033,0,0,0-4.99756,1.75293l-33.04932,26.43945c-.23144-.2666-.4497-.54248-.68457-.80664l-40.00439-45.00488,7.22559-18.06445a16.66419,16.66419,0,0,0-20.74121-21.999.66192.66192,0,0,1-.7627-.26074l-7.89209-11.83789a22.94818,22.94818,0,0,0-38.188,0l-7.89111,11.83789a.66329.66329,0,0,1-.76319.26074,16.66387,16.66387,0,0,0-20.74121,21.998l7.22559,18.06543-40.00391,45.00391a89.93444,89.93444,0,0,0-16.54931,92.53588L19.12207,377.65918l9.75586,12.68164,16.4104-12.62353,63.51172,84.68237-25.59985,19.2,9.5996,12.80078,31.23291-23.4248,55.11866-23.62207a8.00239,8.00239,0,0,0,4.0039-3.7754L197.60938,414.669l66.88232-20.06348a21.75277,21.75277,0,0,0,4.53857-39.72925l10.20142-15.302L313.854,381.12109A8.00036,8.00036,0,0,0,320,384H496V368H480ZM158.499,157.67188a.56488.56488,0,0,1,.69385-.17481,16.70038,16.70038,0,0,0,19.13477-6.56543l7.89111-11.83789a6.94809,6.94809,0,0,1,11.562,0l7.89209,11.83789a16.70439,16.70439,0,0,0,19.13428,6.56543.66447.66447,0,0,1,.82715.87695L218.584,176H165.41614l-7.05042-17.62695A.5647.5647,0,0,1,158.499,157.67188ZM104,287.17383a73.921,73.921,0,0,1,18.69043-49.15918L163.59229,192h10.45434a48.621,48.621,0,0,0-5.636,42.5293l15.17872-5.0586a32.75488,32.75488,0,0,1,7.95605-33.70215L192,195.31348l.4541.4541a32.75619,32.75619,0,0,1,7.95654,33.70312l15.17872,5.0586A48.62128,48.62128,0,0,0,209.95337,192h10.45422l40.902,46.01562a73.99323,73.99323,0,0,1,6.26318,90.20313L251.71875,352H148.94434l7.48681-14.97363A33.97547,33.97547,0,0,0,160,321.90918a25.90854,25.90854,0,0,0-41.70557-20.53613l-10.782,8.2937A74.43337,74.43337,0,0,1,104,287.17383ZM259.894,379.2793l-70.19287,21.05761a8.00332,8.00332,0,0,0-4.85644,4.085l-14.68946,29.3789L122.6272,454.16992,57.971,367.96143l70.07837-53.90674A9.90923,9.90923,0,0,1,144,321.90918a17.89223,17.89223,0,0,1-1.87939,7.96094l-13.27588,26.55176A8,8,0,0,0,136,368H258.23877a5.76109,5.76109,0,0,1,1.65527,11.2793ZM336,296h32v72H336Zm48-32h32V368H384Zm48,104V224h32V368Z"/><path d="M408,16a88,88,0,1,0,88,88A88.09957,88.09957,0,0,0,408,16Zm71.54492,80H447.19507A40.12034,40.12034,0,0,0,416,64.80493V32.45508A72.1223,72.1223,0,0,1,479.54492,96ZM441.3562,126.042A39.77394,39.77394,0,0,0,447.19507,112h32.34985a71.64436,71.64436,0,0,1-15.32532,36.90552ZM408,80a24,24,0,1,1-24,24A24.0275,24.0275,0,0,1,408,80Zm-72,24a72.09543,72.09543,0,0,1,64-71.54492V64.80493a39.9982,39.9982,0,1,0,30.04236,72.551l22.8634,22.86352A71.94364,71.94364,0,0,1,336,104Z"/></svg>
