<svg id="Capa_1" enable-background="new 0 0 512 512" height="512" viewBox="0 0 512 512" width="512" xmlns="http://www.w3.org/2000/svg"><g><g><path d="m425.71 70.174c-45.33-45.253-105.6-70.174-169.71-70.174s-124.38 24.921-169.71 70.174-70.29 105.411-70.29 169.4c0 63.999 24.96 124.157 70.29 169.41 37.25 37.192 84.6 60.627 135.88 67.81l-14.08 14.057 21.22 21.149 46.62-46.54-40.91-52.905-23.75 18.277 12.28 15.893c-100.44-15.624-177.55-102.568-177.55-207.151 0-115.597 94.2-209.645 210-209.645 115.79 0 210 94.048 210 209.645 0 84.021-49.99 159.693-127.35 192.794l11.83 27.505c88.4-37.83 145.52-124.296 145.52-220.299 0-63.989-24.96-124.147-70.29-169.4z" fill="#2ad7f5"/><path d="m316.79 279.549c0 25.619-19.5 47.188-45.79 53.244v22.487h-30v-22.487c-26.29-6.056-45.79-27.625-45.79-53.244h30c0 13.787 13.81 25.011 30.79 25.011s30.79-11.223 30.79-25.011c0-13.787-13.81-25.011-30.79-25.011-33.52 0-60.79-24.642-60.79-54.93 0-25.619 19.5-47.188 45.79-53.244v-22.487h30v22.487c26.29 6.056 45.79 27.625 45.79 53.244h-30c0-13.797-13.81-25.011-30.79-25.011s-30.79 11.213-30.79 25.011c0 13.787 13.81 25.001 30.79 25.001 33.52 0 60.79 24.652 60.79 54.94z" fill="#00dc7b"/></g><path d="m316.79 279.549c0 25.619-19.5 47.188-45.79 53.244v22.487h-15v-50.72c16.98 0 30.79-11.223 30.79-25.011 0-13.787-13.81-25.011-30.79-25.011v-29.929c33.52 0 60.79 24.652 60.79 54.94z" fill="#00aa8e"/><path d="m256 174.597v-50.72h15v22.487c26.29 6.056 45.79 27.625 45.79 53.244h-30c0-13.797-13.81-25.011-30.79-25.011z" fill="#00aa8e"/><path d="m496 239.574c0 96.003-57.12 182.469-145.52 220.299l-11.83-27.505c77.36-33.102 127.35-108.773 127.35-192.794 0-115.597-94.21-209.645-210-209.645v-29.929c64.11 0 124.38 24.921 169.71 70.174s70.29 105.411 70.29 169.4z" fill="#3ba9ff"/></g></svg>