<svg height="512pt" viewBox="-42 0 512 512.00009" width="512pt" xmlns="http://www.w3.org/2000/svg"><path d="m20.832031 17.609375v271.5c0 2.277344 1.847657 4.128906 4.128907 4.128906h185.320312c2.277344 0 4.128906-1.847656 4.128906-4.128906v-271.5c0-2.28125-1.847656-4.128906-4.128906-4.128906h-185.320312c-2.28125 0-4.128907 1.847656-4.128907 4.128906zm0 0" fill="#8cbafa"/><path d="m58.664062 13.480469h37.054688v279.753906h-37.054688zm0 0" fill="#575b7a"/><path d="m264.230469 1.761719-132.535157 189.277343c-1.304687 1.867188-.851562 4.441407 1.015626 5.75l155.925781 109.179688c1.871093 1.308594 4.441406.855469 5.75-1.011719l132.535156-189.277343c1.308594-1.867188.851563-4.441407-1.015625-5.75l-155.925781-109.183594c-1.867188-1.308594-4.441407-.851563-5.75 1.015625zm0 0" fill="#aed559"/><path d="m425.90625 109.929688-19.160156-13.417969c1.640625 1.148437 1.914062 3.597656.605468 5.464843l-132.53125 189.277344c-1.308593 1.867188-3.703124 2.449219-5.34375 1.296875l19.160157 13.417969c1.871093 1.308594 4.441406.855469 5.75-1.011719l132.535156-189.277343c1.308594-1.867188.851563-4.445313-1.015625-5.75zm0 0" fill="#7fab38"/><path d="m253.019531 68.679688c-1.53125 0-3.078125-.453126-4.425781-1.398438-3.496094-2.445312-4.34375-7.265625-1.898438-10.761719l11.265626-16.082031c1.171874-1.679688 2.96875-2.824219 4.984374-3.179688 2.019532-.355468 4.097657.105469 5.773438 1.28125 1.71875 1.199219 3.796875 1.664063 5.855469 1.300782 2.0625-.363282 3.859375-1.511719 5.0625-3.226563.0625-.09375.125-.179687.175781-.269531 1.082031-1.882812 2.902344-3.222656 5.019531-3.695312 2.117188-.472657 4.335938-.03125 6.113281 1.210937l16.949219 11.871094c3.496094 2.445312 4.34375 7.261719 1.898438 10.757812-2.449219 3.496094-7.269531 4.347657-10.761719 1.898438l-11.386719-7.972657c-2.988281 2.363282-6.53125 3.964844-10.386719 4.640626-3.492187.617187-7.003906.433593-10.324218-.496094l-7.578125 10.824218c-1.503907 2.148438-3.902344 3.296876-6.335938 3.296876zm0 0" fill="#575b7a"/><path d="m375.125 154.179688c-1.53125 0-3.074219-.453126-4.425781-1.398438-3.496094-2.445312-4.34375-7.265625-1.894531-10.761719l7.578124-10.824219c-2.011718-2.800781-3.382812-6.039062-4-9.53125-.679687-3.855468-.390624-7.730468.808594-11.347656l-11.382812-7.972656c-3.496094-2.445312-4.347656-7.261719-1.898438-10.757812 2.449219-3.496094 7.265625-4.347657 10.761719-1.898438l16.949219 11.867188c1.777344 1.246093 2.949218 3.183593 3.230468 5.339843.277344 2.152344-.363281 4.324219-1.765624 5.984375-.066407.074219-.121094.152344-.179688.234375-1.207031 1.726563-1.667969 3.808594-1.304688 5.867188.363282 2.0625 1.507813 3.859375 3.222657 5.058593 3.496093 2.449219 4.347656 7.265626 1.898437 10.761719l-11.261718 16.085938c-1.503907 2.144531-3.902344 3.292969-6.335938 3.292969zm0 0" fill="#575b7a"/><path d="m302.019531 120.933594c-20.671875-14.472656-53.722656-2.929688-73.824219 25.777344-20.101562 28.707031-19.640624 63.710937 1.03125 78.183593 20.667969 14.476563 53.71875 2.933594 73.820313-25.773437 20.101563-28.707032 19.640625-63.714844-1.027344-78.1875zm0 0" fill="#ffeb96"/><path d="m249.859375 238.90625c-9.234375 0-17.804687-2.578125-25.078125-7.671875-12.089844-8.464844-18.871094-22.664063-19.097656-39.980469-.214844-16.375 5.527344-33.765625 16.171875-48.964844 10.640625-15.199218 25.015625-26.542968 40.476562-31.941406 16.351563-5.707031 32.015625-4.191406 44.101563 4.269532 12.085937 8.464843 18.871094 22.664062 19.097656 39.984374.214844 16.371094-5.527344 33.761719-16.171875 48.960938-10.640625 15.199219-25.019531 26.542969-40.476563 31.941406-6.511718 2.273438-12.914062 3.402344-19.023437 3.402344zm31.425781-116.480469c-4.378906 0-9.046875.832031-13.859375 2.511719-12.425781 4.339844-24.113281 13.648438-32.914062 26.214844-17.625 25.171875-18.015625 55.417968-.867188 67.421875 17.148438 12.007812 45.433594 1.296875 63.058594-23.875 8.800781-12.566407 13.550781-26.734375 13.375-39.894531-.160156-12.214844-4.601563-21.992188-12.507813-27.527344-4.605468-3.226563-10.167968-4.851563-16.285156-4.851563zm21.746094 76.707031h.011719zm0 0" fill="#575b7a"/><path d="m0 201.660156v232.613282c0 16.777343 13.601562 30.378906 30.378906 30.378906h335.691406c16.777344 0 30.378907-13.601563 30.378907-30.378906v-232.613282c0-16.777344-13.601563-30.378906-30.378907-30.378906h-335.691406c-16.777344 0-30.378906 13.601562-30.378906 30.378906zm0 0" fill="#f28f88"/><path d="m366.070312 171.28125h-25.648437c16.777344 0 30.378906 13.601562 30.378906 30.378906v232.613282c0 16.777343-13.601562 30.378906-30.378906 30.378906h25.648437c16.777344 0 30.378907-13.601563 30.378907-30.378906v-232.613282c0-16.777344-13.601563-30.378906-30.378907-30.378906zm0 0" fill="#ce675d"/><path d="m395.011719 365.734375h-61.597657c-26.382812 0-47.769531-21.386719-47.769531-47.769531 0-26.378906 21.386719-47.769532 47.769531-47.769532h61.597657c17.652343 0 31.964843 14.3125 31.964843 31.96875v31.605469c0 17.652344-14.3125 31.964844-31.964843 31.964844zm0 0" fill="#ffd2c0"/><path d="m395.011719 342.75h-61.597657c-22.421874 0-41.222656-15.445312-46.367187-36.277344-.910156 3.683594-1.402344 7.53125-1.402344 11.492188 0 26.382812 21.386719 47.769531 47.769531 47.769531h61.597657c17.652343 0 31.964843-14.3125 31.964843-31.964844v-22.984375c0 17.652344-14.3125 31.964844-31.964843 31.964844zm0 0" fill="#edaa9d"/><path d="m356.308594 317.964844c0 11.558594-9.367188 20.925781-20.921875 20.925781-11.554688 0-20.921875-9.367187-20.921875-20.925781 0-11.554688 9.367187-20.921875 20.921875-20.921875 11.554687 0 20.921875 9.367187 20.921875 20.921875zm0 0" fill="#ce675d"/><path d="m283.84375 426.378906c0 47.289063-38.332031 85.621094-85.617188 85.621094-47.289062 0-85.621093-38.332031-85.621093-85.621094 0-47.285156 38.332031-85.617187 85.621093-85.617187 47.285157 0 85.617188 38.332031 85.617188 85.617187zm0 0" fill="#ffcd34"/><g fill="#e69012"><path d="m235.964844 349.519531c16.332031 15.589844 26.523437 37.5625 26.523437 61.921875 0 47.285156-38.332031 85.621094-85.621093 85.621094-13.546876 0-26.347657-3.160156-37.734376-8.761719 15.367188 14.671875 36.167969 23.699219 59.09375 23.699219 47.285157 0 85.617188-38.332031 85.617188-85.621094 0-33.738281-19.523438-62.90625-47.878906-76.859375zm0 0"/><path d="m227.082031 441.148438c0-12.28125-9.988281-22.269532-22.269531-22.269532h-13.175781c-4.007813 0-7.269531-3.257812-7.269531-7.265625 0-4.007812 3.261718-7.269531 7.269531-7.269531h25.21875c4.140625 0 7.5-3.359375 7.5-7.5s-3.359375-7.5-7.5-7.5h-9.710938v-6.757812c0-4.140626-3.359375-7.5-7.5-7.5s-7.5 3.359374-7.5 7.5v6.757812h-.507812c-12.28125 0-22.269531 9.988281-22.269531 22.269531 0 12.277344 9.988281 22.265625 22.269531 22.265625h13.175781c4.007812 0 7.269531 3.261719 7.269531 7.269532 0 4.007812-3.261719 7.269531-7.269531 7.269531h-25.21875c-4.140625 0-7.5 3.355469-7.5 7.5 0 4.140625 3.359375 7.5 7.5 7.5h12.550781v6.753906c0 4.144531 3.359375 7.5 7.5 7.5s7.5-3.355469 7.5-7.5v-6.878906c11.1875-1.167969 19.9375-10.652344 19.9375-22.144531zm0 0"/></g></svg>