<svg height="480pt" viewBox="0 0 480 480" width="480pt" xmlns="http://www.w3.org/2000/svg"><path d="m440 8h-80v432h80c17.671875 0 32-14.328125 32-32v-368c0-17.671875-14.328125-32-32-32zm0 0" fill="#348fd9"/><path d="m360 8h-208c-17.671875 0-32 14.328125-32 32v368c0 17.671875 14.328125 32 32 32h256c17.671875 0 32-14.328125 32-32v-320zm0 0" fill="#60d1e0"/><path d="m192 440h216c17.671875 0 32-14.328125 32-32v-216zm0 0" fill="#5ac6d4"/><path d="m408 104h32v-16l-64-64v48c0 17.671875 14.328125 32 32 32zm0 0" fill="#5ac6d4"/><path d="m440 88h-48c-17.671875 0-32-14.328125-32-32v-48zm0 0" fill="#9fe4ed"/><g fill="#3fb7c7"><path d="m192 88h-16c-4.417969 0-8-3.582031-8-8s3.582031-8 8-8h32v-16h-16v-16h-16v16c-13.253906 0-24 10.746094-24 24s10.746094 24 24 24h16c4.417969 0 8 3.582031 8 8s-3.582031 8-8 8h-32v16h16v16h16v-16c13.253906 0 24-10.746094 24-24s-10.746094-24-24-24zm0 0"/><path d="m240 56h96v16h-96zm0 0"/><path d="m240 88h48v16h-48zm0 0"/><path d="m304 88h32v16h-32zm0 0"/><path d="m240 120h96v16h-96zm0 0"/><path d="m408 184v-16h-256v16h168v24h-168v16h168v24h-80v16h80v24h-32v16h32v24h-32v16h32v24h-48v16h136v-16h-72v-24h72v-16h-72v-24h72v-16h-72v-24h72v-16h-72v-24h72v-16h-72v-24zm0 0"/><path d="m272 400h136v16h-136zm0 0"/></g><path d="m8 440h256v32h-256zm0 0" fill="#ffb531"/><path d="m24 328h32v112h-32zm0 0" fill="#ffb531"/><path d="m88 328h32v112h-32zm0 0" fill="#ffb531"/><path d="m152 328h32v112h-32zm0 0" fill="#ffb531"/><path d="m216 328h32v112h-32zm0 0" fill="#ffb531"/><path d="m264 288-128-40-128 40v40h256zm0 0" fill="#ffb531"/><path d="m152 288c0 8.835938-7.164062 16-16 16s-16-7.164062-16-16 7.164062-16 16-16 16 7.164062 16 16zm0 0" fill="#b0564c"/><path d="m24 328h32v16h-32zm0 0" fill="#f7a116"/><path d="m88 328h32v16h-32zm0 0" fill="#f7a116"/><path d="m152 328h32v16h-32zm0 0" fill="#f7a116"/><path d="m216 328h32v16h-32zm0 0" fill="#f7a116"/><path d="m440 0h-288c-22.082031.0273438-39.972656 17.917969-40 40v184h16v-184c0-13.253906 10.746094-24 24-24h200v40c.027344 22.082031 17.917969 39.972656 40 40h40v312c0 13.253906-10.746094 24-24 24h-120v16h152c22.082031-.027344 39.972656-17.917969 40-40v-368c-.027344-22.082031-17.917969-39.9726562-40-40zm-48 80c-13.253906 0-24-10.746094-24-24v-28.6875l52.6875 52.6875zm72 328c0 13.253906-10.746094 24-24 24h-.207031c5.292969-6.882812 8.175781-15.316406 8.207031-24v-320c0-.175781-.089844-.328125-.105469-.503906-.039062-.699219-.175781-1.394532-.40625-2.054688-.089843-.257812-.152343-.503906-.265625-.753906-.386718-.871094-.925781-1.664062-1.597656-2.34375l-66.3125-66.34375h60.6875c13.253906 0 24 10.746094 24 24zm0 0"/><path d="m152 208v16h168v24h-80v16h80v24h-32v16h32v24h-32v16h32v24h-48v16h136v-16h-72v-24h72v-16h-72v-24h72v-16h-72v-24h72v-16h-72v-24h72v-16h-72v-24h72v-16h-256v16h168v24zm0 0"/><path d="m272 400h136v16h-136zm0 0"/><path d="m240 56h96v16h-96zm0 0"/><path d="m240 88h48v16h-48zm0 0"/><path d="m304 88h32v16h-32zm0 0"/><path d="m240 120h96v16h-96zm0 0"/><path d="m264 432h-8v-96h8c4.417969 0 8-3.582031 8-8v-40c0-3.492188-2.265625-6.582031-5.601562-7.632812l-128-40c-1.558594-.492188-3.238282-.492188-4.796876 0l-128 40c-3.335937 1.050781-5.601562 4.140624-5.601562 7.632812v40c0 4.417969 3.582031 8 8 8h8v96h-8c-4.417969 0-8 3.582031-8 8v32c0 4.417969 3.582031 8 8 8h256c4.417969 0 8-3.582031 8-8v-32c0-4.417969-3.582031-8-8-8zm-24 0h-16v-96h16zm-48 0v-96h16v96zm-64 0v-96h16v96zm-64 0v-96h16v96zm32-96h16v96h-16zm64 0h16v96h-16zm-144-42.121094 120-37.496094 120 37.496094v26.121094h-240zm16 42.121094h16v96h-16zm224 128h-240v-16h240zm0 0"/><path d="m152 288c0 8.835938-7.164062 16-16 16s-16-7.164062-16-16 7.164062-16 16-16 16 7.164062 16 16zm0 0"/><path d="m176 40v16c-13.253906 0-24 10.746094-24 24s10.746094 24 24 24h16c4.417969 0 8 3.582031 8 8s-3.582031 8-8 8h-32v16h16v16h16v-16c13.253906 0 24-10.746094 24-24s-10.746094-24-24-24h-16c-4.417969 0-8-3.582031-8-8s3.582031-8 8-8h32v-16h-16v-16zm0 0"/></svg>