<svg id="Flat" height="512" viewBox="0 0 512 512" width="512" xmlns="http://www.w3.org/2000/svg"><path d="m80 24h224v160h-224z" fill="#8f9e46"/><path d="m112 56h224v192h-224z" fill="#b1bd70"/><path d="m304 152a8 8 0 0 1 -8-8v-48h-144v48a8 8 0 0 1 -16 0v-56a8 8 0 0 1 8-8h160a8 8 0 0 1 8 8v56a8 8 0 0 1 -8 8z" fill="#499154"/><rect fill="#3397e8" height="208" rx="16" transform="matrix(0 1 -1 0 592 -32)" width="320" x="152" y="176"/><circle cx="360" cy="176" fill="#f7b030" r="24"/><path d="m240 144a8 8 0 0 0 -8 8v40h16v-40a8 8 0 0 0 -8-8z" fill="#2978b8"/><rect fill="#ad6643" height="304" rx="16" width="368" x="64" y="184"/><path d="m432 200v16h-368v-16a16 16 0 0 1 16-16h336a16 16 0 0 1 16 16z" fill="#d49073"/><path d="m432 456v16a16 16 0 0 1 -16 16h-336a16 16 0 0 1 -16-16v-16z" fill="#d49073"/><path d="m352 288h96a0 0 0 0 1 0 0v96a0 0 0 0 1 0 0h-96a32 32 0 0 1 -32-32v-32a32 32 0 0 1 32-32z" fill="#8c5237"/><g fill="#f7b030"><circle cx="368" cy="336" r="16"/><path d="m96 392h48v32h-48z"/></g></svg>