<svg height="512" viewBox="0 0 54 60" width="512" xmlns="http://www.w3.org/2000/svg"><g id="Page-1" fill="none" fill-rule="evenodd"><g id="014---Wallet" fill-rule="nonzero"><path id="Shape" d="m43 26v10h-10c-2.209139 0-4 1.790861-4 4s1.790861 4 4 4h10v11c0 2.209139-1.790861 4-4 4h-34c-2.209139 0-4-1.790861-4-4v-29c0-2.209139 1.790861-4 4-4h34c2.209139 0 4 1.790861 4 4z" fill="#a0522d"/><path id="Shape" d="m40 55c0 2.209139-1.790861 4-4 4h3c2.209139 0 4-1.790861 4-4v-11h-3z" fill="#783e22"/><path id="Shape" d="m39 22h-3c2.209139 0 4 1.790861 4 4v10h3v-10c0-2.209139-1.790861-4-4-4z" fill="#783e22"/><path id="Shape" d="m50 44v11c0 2.209139-1.790861 4-4 4h-7c2.209139 0 4-1.790861 4-4v-11z" fill="#6d4122"/><path id="Shape" d="m50 27.81v8.19h-7v-3.14z" fill="#6d4122"/><path id="Rectangle-path" d="m43 36h7v8h-7z" fill="#ff9801"/><path id="Shape" d="m43 36v8h-10c-2.209139 0-4-1.790861-4-4s1.790861-4 4-4z" fill="#ffdc00"/><path id="Rectangle-path" d="m40 36h3v8h-3z" fill="#fec108"/><path id="Shape" d="m51.34 26.85-1.34.96-7 5.05v-6.86c0-2.209139-1.790861-4-4-4h-25.41l8.36-6.02 11.56-8.34 2.63-1.89c1.7960482-1.28756876 4.2950736-.88075066 5.59.91l.58.81 3.51 4.87 6.43 8.93c1.2882947 1.7924673.881037 4.2897176-.91 5.58z" fill="#02a9f4"/><path id="Shape" d="m52.25 21.27-6.43-8.93-3.51-4.87-.58-.81c-1.0837756-1.492047-3.0450995-2.05313251-4.754-1.36.7010049.2792312 1.3089734.75063206 1.754 1.36l.58.81 3.51 4.87 6.43 8.93c1.2882947 1.7924673.881037 4.2897176-.91 5.58l-1.34.96-4 2.89v2.16l7-5.05 1.34-.96c1.791037-1.2902824 2.1982947-3.7875327.91-5.58z" fill="#0377bc"/><path id="Shape" d="m22.14 22 20.17-14.53 3.51 4.87-13.41 9.66z" fill="#3f51b5"/><path id="Shape" d="m33.51 7.64-11.56 8.34-8.36 6.02h-7.17l9.79-18.84c1.020021-1.96211694 3.4364871-2.7273312 5.4-1.71l.88.46 5.33 2.77z" fill="#ffdc00"/><path id="Shape" d="m27.82 4.68-5.33-2.77-.88-.46c-1.0404803-.53690822-2.2648409-.58740486-3.346-.138.115.047.233.079.346.138l.88.46 5.33 2.77 5.69 2.96-11.56 8.34-8.36 6.02h3l8.36-6.02 11.56-8.34z" fill="#fec108"/><path id="Shape" d="m27.82 4.68-5.87 11.3-8.36 6.02h-1.54l10.44-20.09z" fill="#3f51b5"/><g fill="#000"><path id="Shape" d="m8 25h-2c-.55228475 0-1 .4477153-1 1s.44771525 1 1 1h2c.55228475 0 1-.4477153 1-1s-.44771525-1-1-1z"/><path id="Shape" d="m14 25h-2c-.5522847 0-1 .4477153-1 1s.4477153 1 1 1h2c.5522847 0 1-.4477153 1-1s-.4477153-1-1-1z"/><path id="Shape" d="m20 25h-2c-.5522847 0-1 .4477153-1 1s.4477153 1 1 1h2c.5522847 0 1-.4477153 1-1s-.4477153-1-1-1z"/><path id="Shape" d="m26 25h-2c-.5522847 0-1 .4477153-1 1s.4477153 1 1 1h2c.5522847 0 1-.4477153 1-1s-.4477153-1-1-1z"/><path id="Shape" d="m30 27h2c.5522847 0 1-.4477153 1-1s-.4477153-1-1-1h-2c-.5522847 0-1 .4477153-1 1s.4477153 1 1 1z"/><path id="Shape" d="m36 27h2c.5522847 0 1-.4477153 1-1s-.4477153-1-1-1h-2c-.5522847 0-1 .4477153-1 1s.4477153 1 1 1z"/><path id="Shape" d="m8 54h-2c-.55228475 0-1 .4477153-1 1s.44771525 1 1 1h2c.55228475 0 1-.4477153 1-1s-.44771525-1-1-1z"/><path id="Shape" d="m14 54h-2c-.5522847 0-1 .4477153-1 1s.4477153 1 1 1h2c.5522847 0 1-.4477153 1-1s-.4477153-1-1-1z"/><path id="Shape" d="m20 54h-2c-.5522847 0-1 .4477153-1 1s.4477153 1 1 1h2c.5522847 0 1-.4477153 1-1s-.4477153-1-1-1z"/><path id="Shape" d="m26 54h-2c-.5522847 0-1 .4477153-1 1s.4477153 1 1 1h2c.5522847 0 1-.4477153 1-1s-.4477153-1-1-1z"/><path id="Shape" d="m32 54h-2c-.5522847 0-1 .4477153-1 1s.4477153 1 1 1h2c.5522847 0 1-.4477153 1-1s-.4477153-1-1-1z"/><path id="Shape" d="m38 54h-2c-.5522847 0-1 .4477153-1 1s.4477153 1 1 1h2c.5522847 0 1-.4477153 1-1s-.4477153-1-1-1z"/><circle id="Oval" cx="33" cy="40" r="1"/><path id="Shape" d="m42.539 6.073c-1.6199632-2.23276589-4.7382195-2.73967235-6.982-1.135l-2.128 1.533-11.358-5.908c-2.453724-1.27097952-5.4732134-.31474821-6.748 2.137l-9.51 18.3h-.813c-2.76005315.0033061-4.99669388 2.2399468-5 5v29c.00330612 2.7600532 2.23994685 4.9966939 5 5h41c2.7600532-.0033061 4.9966939-2.2399468 5-5v-26.673l.924-.666c2.2389633-1.6126972 2.7482633-4.7342856 1.138-6.975zm-17.3 14.927 16.844-12.134 2.341 3.247-12.337 8.887zm11.486-14.439c1.3474811-.9602379 3.2168771-.65647779 4.191.681l-19.099 13.758h-5.129l5.89-4.244.014-.01zm-13.808-3.3 3.555 1.847-5.295 10.192-7.224 5.2zm1.861 9.446 3.468-6.676 3.366 1.749zm-7.678-9.085c.7644828-1.46957404 2.5729927-2.04484648 4.046-1.287l-9.703 18.665h-3.377zm20.9 54.378h-33c-1.65685425 0-3-1.3431458-3-3v-29c0-1.6568542 1.34314575-3 3-3h34c1.6568542 0 3 1.3431458 3 3v9h-9c-2.7614237 0-5 2.2385763-5 5s2.2385763 5 5 5h9v10c0 1.6568542-1.3431458 3-3 3zm11-15h-5v-6h5zm-7 0h-9c-1.6568542 0-3-1.3431458-3-3s1.3431458-3 3-3h9zm4 15h-3.026c.6618067-.8603889 1.0223232-1.9145307 1.026-3v-10h5v10c0 1.6568542-1.3431458 3-3 3zm3-23h-5v-1.628l5-3.6zm1.757-8.963-6.757 4.87v-4.907c-.0033061-2.7600532-2.2399468-4.9966939-5-5h-3.491l10.084-7.264 5.846 8.118c.9649639 1.3438582.659851 3.215247-.682 4.183z"/></g></g></g></svg>